<svg width="142" height="34" viewBox="0 0 142 34" fill="none" xmlns="http://www.w3.org/2000/svg">
<path fill-rule="evenodd" clip-rule="evenodd" d="M78.9613 34C84.8285 32.4956 97.9783 27.7898 103.64 21.0019C110.717 12.517 107.496 1.91072 100.918 0.782514C96.5902 0.0402364 94.861 1.57553 93.4288 2.84709C93.2298 3.02375 93.0365 3.19532 92.8428 3.35499C92.5539 3.17971 92.2683 2.98918 91.975 2.79356L91.9748 2.79346L91.9747 2.79333L91.9745 2.79319L91.9743 2.79305L91.974 2.79292L91.9738 2.79278L91.9737 2.79266C90.3795 1.72923 88.5603 0.515695 84.768 0.782514C80.0618 1.11363 72.9732 8.00366 81.6832 21.0019C84.768 25.6054 81.6833 32.0142 78.9613 34ZM93.0696 24.2595C90.758 23.5809 85.6573 20.9116 83.7473 15.6636C81.3599 9.10356 87.0442 2.76974 93.0696 7.06769C98.5265 2.99594 104.779 8.08563 102.165 15.6636C100.923 19.2629 95.457 23.4678 93.0696 24.2595ZM120.044 27.079C113.003 27.079 111.333 22.4252 111.333 20.516V7.86723H114.435C114.435 7.86723 116.464 7.86723 116.464 9.53781V20.516C116.464 22.0672 117.657 23.6185 120.044 23.6185C121.953 23.6185 122.908 23.1412 123.266 22.7832V7.86723H126.249C126.249 7.86723 127.8 7.86723 127.8 9.53781V23.6185C127.561 24.5333 125.676 27.079 120.044 27.079ZM131.738 3.81008V22.5445C131.738 24.3345 133.289 27.079 136.153 27.079C138.569 27.079 140.306 26.2294 141.435 25.6772C141.644 25.575 141.832 25.483 142 25.4084V22.5445C140.807 23.4992 136.153 24.6924 136.153 20.7546V12.7597H140.687C142 12.7597 142 11.5664 142 11.5664V9.17983H136.153V5.48067C136.153 3.81008 134.482 3.81008 134.482 3.81008H131.738ZM63.721 26.9597C67.635 26.9597 69.6476 25.4482 70.1647 24.6924V21.9479C59.5445 26.3084 58.5899 18.9647 58.5899 18.9647C58.5899 18.9647 69.3294 17.2941 69.8067 17.1748C70.284 17.0555 71.4773 16.6975 71.4773 15.3849C71.4773 9.53781 67.5395 5.95798 62.2891 6.31597C56.5746 6.70559 53.6975 11.4471 53.6975 16.8168C53.6975 23.0218 57.874 26.9597 63.721 26.9597ZM41.7647 2.97479V21.9479C41.7647 23.8571 43.316 26.9597 46.7765 26.9597C50.004 26.9597 51.7783 25.7141 52.293 25.3527L52.3458 25.3158C52.3603 25.3057 52.3733 25.2968 52.3849 25.2891C52.6713 25.0982 52.5042 23.4594 52.3849 22.6639C50.7143 23.6185 46.5378 24.6924 46.5378 20.516V12.879H50.9529C52.3849 12.879 52.3849 11.4471 52.3849 11.4471V9.17983H46.5378V4.52605C46.5378 2.97479 45.5116 2.97479 44.7479 2.97479H41.7647ZM33.4118 14.9076V13.7143C33.4118 12.0437 31.8605 10.4924 28.5193 10.4924C25.8941 10.4924 23.6269 11.1289 23.1496 11.4471V8.82185C23.1098 8.22521 25.5361 7.03193 30.0706 7.03193C37.8269 7.03193 37.8269 12.163 37.8269 13.237V23.4992C37.8269 25.8857 32.2878 26.9597 30.0706 26.9597C26.8487 26.9597 21.7176 25.9852 21.7176 20.7546C21.7176 16.1618 26.676 15.6633 30.6442 15.2643C31.6663 15.1615 32.6227 15.0654 33.4118 14.9076ZM0 2.97479V24.6924C0 26.9597 6.32437 26.9597 7.15966 26.9597C11.9328 26.9597 19.9277 25.2891 19.9277 14.1916C19.9277 4.88403 14.3193 1.18487 7.15966 1.18487C1.43193 1.18487 0 2.37815 0 2.97479ZM33.4118 22.4252V17.8908C32.8561 18.0542 32.0675 18.1012 31.2154 18.1521C28.957 18.2868 26.2521 18.4481 26.2521 20.874C26.2521 23.2605 28.9967 23.4992 30.0706 23.4992C30.8264 23.4992 32.7436 23.0935 33.4118 22.4252ZM67.3008 14.4302L58.1126 15.9815C58.1126 14.2314 58.7385 10.6953 62.0504 10.2538C65.6302 9.77646 67.2213 13.1574 67.3008 14.4302ZM4.77311 6.31598V22.4252C10.3815 23.9765 14.7966 21.8286 14.7966 14.0723C14.7966 7.03194 10.7395 4.40672 4.77311 6.31598Z" fill="white"/>
</svg>
