<svg width="27" height="27" viewBox="0 0 27 27" fill="none" xmlns="http://www.w3.org/2000/svg">
<path d="M26.668 13.5394C26.668 6.35963 20.8477 0.539374 13.6683 0.539374C6.48852 0.539374 0.667969 6.35963 0.667969 13.5394C0.667969 20.0309 5.42686 25.4112 11.646 26.3823V17.2951H8.32343V13.5394H11.646L11.6475 10.6751C11.6475 7.41729 13.5777 5.61036 16.5471 5.61036C17.9697 5.61036 19.446 5.88363 19.446 5.88363V9.06146H17.8178C16.203 9.06146 15.6873 10.0726 15.6873 11.1008L15.6905 13.5394H19.3012L18.7238 17.2951H15.6905V26.3823C21.9091 25.4112 26.668 20.0309 26.668 13.5394Z" fill="#768C98"/>
</svg>
