<svg xmlns="http://www.w3.org/2000/svg" viewBox="0 0 512 330.32"><defs><style>.cls-1{fill:#ffc269;}.cls-2{fill:#95cc81;}.cls-3{fill:#f2f2f6;}.cls-4{fill:#5055a0;}.cls-5{fill:#3f3f8f;}</style></defs><g id="Layer_2" data-name="Layer 2"><g id="Capa_1" data-name="Capa 1"><path class="cls-1" d="M512,110.11V16.52A16.51,16.51,0,0,0,495.48,0h-479L7.67,16.52v93.59l17.1,22H487.23Z"/><path class="cls-1" d="M0,16.52v93.59l16.52,14.68V0A16.52,16.52,0,0,0,0,16.52Z"/><path class="cls-2" d="M7.82,220.21v86.43a16.51,16.51,0,0,0,16.51,16.52H495.48L512,313.81v-93.6l-24.77-22H24.77Z"/><path class="cls-2" d="M16.52,264.26V205.53L0,220.21v93.6a16.51,16.51,0,0,0,16.52,16.51h479A16.52,16.52,0,0,0,512,313.81H66.06a49.55,49.55,0,0,1-49.54-49.55Z"/><path class="cls-3" d="M8.67,206.16l7.85,14.05H512V110.11H16.52L8.67,127.49Z"/><path class="cls-3" d="M0,110.11H16.52v110.1H0Z"/><path class="cls-4" d="M286.6,146.23a36.27,36.27,0,0,0-11.67-11.68l-10.67,10.67V130.13a35.65,35.65,0,0,0-16.52,0v15.09l-10.67-10.66a36.24,36.24,0,0,0-11.67,11.67l10.67,10.67H221a35.65,35.65,0,0,0,0,16.52h15.1L225.4,184.09a36.27,36.27,0,0,0,11.67,11.68l10.67-10.67v15.09a35.65,35.65,0,0,0,16.52,0V185.1l10.67,10.67a36.3,36.3,0,0,0,11.68-11.68l-10.68-10.67H291a36,36,0,0,0,0-16.52H275.93Z"/><path class="cls-5" d="M256,214.71a49.55,49.55,0,1,1,49.55-49.55A49.61,49.61,0,0,1,256,214.71Zm0-82.58a33,33,0,1,0,33,33A33.06,33.06,0,0,0,256,132.13Z"/></g></g></svg>