<svg width="88" height="92" viewBox="0 0 88 92" fill="none" xmlns="http://www.w3.org/2000/svg">
<path fill-rule="evenodd" clip-rule="evenodd" d="M4.37727 91.91C21.4246 87.7972 59.6317 74.9322 76.0815 56.3751C96.6437 33.1787 87.2849 4.18297 68.1729 1.09864C55.5986 -0.930634 50.5742 3.26661 46.4129 6.74286C45.8347 7.22583 45.2733 7.69488 44.7105 8.13138C43.8697 7.65145 43.0384 7.12972 42.185 6.59405C37.5532 3.6868 32.2675 0.369196 21.2488 1.09864C7.57483 2.00386 -13.0214 20.8401 12.2858 56.3751C21.2488 68.9606 12.286 86.4811 4.37727 91.91ZM45.3694 65.281C38.6529 63.4258 23.8326 56.1284 18.2832 41.7812C11.3465 23.8471 27.8625 6.53141 45.3694 18.2813C61.2246 7.1498 79.3922 21.0642 71.7949 41.7812C68.1864 51.6211 52.306 63.1166 45.3694 65.281Z" fill="#E6F3FA"/>
</svg>
