<svg width="19" height="20" viewBox="0 0 19 20" fill="none" xmlns="http://www.w3.org/2000/svg">
<path opacity="0.5" fill-rule="evenodd" clip-rule="evenodd" d="M1.6452 19.6513C5.1965 18.7945 13.1558 16.1145 16.5826 12.2487C20.8662 7.41638 18.9165 1.37598 14.9351 0.733448C12.3156 0.31071 11.269 1.18508 10.4021 1.90925C10.2816 2.00987 10.1647 2.10758 10.0474 2.19851C9.87226 2.09853 9.6991 1.98984 9.52131 1.87825C8.5564 1.27262 7.4553 0.581491 5.15989 0.733448C2.31131 0.922025 -1.97929 4.846 3.2927 12.2487C5.15988 14.8705 3.29275 18.5203 1.6452 19.6513ZM10.1847 14.1039C8.78551 13.7175 5.69813 12.1973 4.54208 9.20844C3.09702 5.47241 6.53764 1.86521 10.1847 4.31295C13.4877 1.99403 17.2723 4.89268 15.6896 9.20844C14.9379 11.2583 11.6297 13.653 10.1847 14.1039Z" fill="white"/>
</svg>
