<svg width="22" height="21" viewBox="0 0 22 21" fill="none" xmlns="http://www.w3.org/2000/svg">
<path d="M9.43309 13.4899V12.9764C9.43309 12.5322 9.52793 12.1459 9.71762 11.8174C9.90731 11.489 10.2543 11.1396 10.7586 10.7695C11.2444 10.4225 11.5636 10.1403 11.7163 9.92286C11.8736 9.70541 11.9523 9.46251 11.9523 9.19417C11.9523 8.89344 11.8412 8.66443 11.6191 8.50713C11.3971 8.34982 11.0871 8.27117 10.6892 8.27117C9.99522 8.27117 9.20407 8.49787 8.31577 8.95128L7.55933 7.43145C8.59105 6.85313 9.68524 6.56396 10.8419 6.56396C11.795 6.56396 12.5514 6.79298 13.1112 7.25101C13.6757 7.70904 13.9579 8.31975 13.9579 9.08313C13.9579 9.59206 13.8422 10.0316 13.6109 10.4017C13.3796 10.7718 12.94 11.1882 12.2923 11.6509C11.8482 11.9794 11.5659 12.2292 11.4456 12.4004C11.33 12.5716 11.2722 12.796 11.2722 13.0736V13.4899H9.43309ZM9.21101 15.8634C9.21101 15.4747 9.31511 15.181 9.52331 14.982C9.7315 14.7831 10.0345 14.6836 10.4324 14.6836C10.8164 14.6836 11.1125 14.7854 11.3207 14.989C11.5336 15.1925 11.64 15.484 11.64 15.8634C11.64 16.2289 11.5336 16.518 11.3207 16.7309C11.1079 16.9391 10.8118 17.0432 10.4324 17.0432C10.0438 17.0432 9.74307 16.9414 9.53025 16.7378C9.31742 16.5296 9.21101 16.2381 9.21101 15.8634Z" fill="white"/>
<path fill-rule="evenodd" clip-rule="evenodd" d="M2.08456 19.5529H11.0259C16.0256 19.5529 20.0787 15.4998 20.0787 10.5C20.0787 5.50026 16.0256 1.44716 11.0259 1.44716C6.02614 1.44716 1.97304 5.50026 1.97304 10.5V19.4414C1.97304 19.5029 2.02297 19.5529 2.08456 19.5529ZM11.0259 0.0258789C5.24119 0.0258789 0.551758 4.71531 0.551758 10.5V19.4414C0.551758 20.2879 1.23802 20.9742 2.08456 20.9742H11.0259C16.8106 20.9742 21.5 16.2847 21.5 10.5C21.5 4.71531 16.8106 0.0258789 11.0259 0.0258789Z" fill="white"/>
</svg>
