<svg width="27" height="27" viewBox="0 0 27 27" fill="none" xmlns="http://www.w3.org/2000/svg">
<path fill-rule="evenodd" clip-rule="evenodd" d="M13.4259 20.2151C17.1489 20.2151 20.1669 17.197 20.1669 13.474C20.1669 9.75104 17.1489 6.73296 13.4259 6.73296C9.7029 6.73296 6.68483 9.75104 6.68483 13.474C6.68483 17.197 9.7029 20.2151 13.4259 20.2151ZM13.4259 17.6872C15.7527 17.6872 17.639 15.8009 17.639 13.474C17.639 11.1472 15.7527 9.26086 13.4259 9.26086C11.099 9.26086 9.21273 11.1472 9.21273 13.474C9.21273 15.8009 11.099 17.6872 13.4259 17.6872Z" fill="#768C98"/>
<path d="M20.3167 7.95248C21.2474 7.95248 22.002 7.19796 22.002 6.26721C22.002 5.33647 21.2474 4.58195 20.3167 4.58195C19.386 4.58195 18.6314 5.33647 18.6314 6.26721C18.6314 7.19796 19.386 7.95248 20.3167 7.95248Z" fill="#768C98"/>
<path fill-rule="evenodd" clip-rule="evenodd" d="M8.00947 0.474121C3.82111 0.474121 0.425781 3.86945 0.425781 8.05781V18.8904C0.425781 23.0788 3.82111 26.4741 8.00947 26.4741H18.8421C23.0304 26.4741 26.4258 23.0788 26.4258 18.8904V8.05781C26.4258 3.86945 23.0305 0.474121 18.8421 0.474121H8.00947ZM18.8421 3.00202H8.00947C5.21723 3.00202 2.95368 5.26557 2.95368 8.05781V18.8904C2.95368 21.6827 5.21723 23.9462 8.00947 23.9462H18.8421C21.6343 23.9462 23.8979 21.6827 23.8979 18.8904V8.05781C23.8979 5.26557 21.6343 3.00202 18.8421 3.00202Z" fill="#768C98"/>
</svg>
