<svg width="24" height="25" viewBox="0 0 24 25" fill="none" xmlns="http://www.w3.org/2000/svg">
<path d="M23.5756 22.116L17.9057 16.219C19.3635 14.486 20.1623 12.3055 20.1623 10.0355C20.1623 4.73199 15.8473 0.417053 10.5438 0.417053C5.24023 0.417053 0.925293 4.73199 0.925293 10.0355C0.925293 15.3391 5.24023 19.654 10.5438 19.654C12.5348 19.654 14.4322 19.0535 16.0543 17.9135L21.7673 23.8552C22.0061 24.1032 22.3273 24.24 22.6715 24.24C22.9972 24.24 23.3063 24.1158 23.5409 23.8899C24.0394 23.4103 24.0553 22.6149 23.5756 22.116ZM10.5438 2.92623C14.464 2.92623 17.6531 6.11538 17.6531 10.0355C17.6531 13.9557 14.464 17.1449 10.5438 17.1449C6.62362 17.1449 3.43447 13.9557 3.43447 10.0355C3.43447 6.11538 6.62362 2.92623 10.5438 2.92623Z" fill="url(#paint0_linear)"/>
<defs>
<linearGradient id="paint0_linear" x1="12.4253" y1="0.417053" x2="12.4253" y2="24.24" gradientUnits="userSpaceOnUse">
<stop stop-color="#00C0FD"/>
<stop offset="1" stop-color="#0088B4"/>
</linearGradient>
</defs>
</svg>
