<svg width="9" height="9" viewBox="0 0 9 9" fill="none" xmlns="http://www.w3.org/2000/svg">
<path fill-rule="evenodd" clip-rule="evenodd" d="M6.81069 2.26101C6.81069 3.34304 5.93353 4.2202 4.8515 4.2202C3.76947 4.2202 2.89231 3.34304 2.89231 2.26101C2.89231 1.17898 3.76947 0.301819 4.8515 0.301819C5.93353 0.301819 6.81069 1.17898 6.81069 2.26101Z" fill="#787878"/>
<path fill-rule="evenodd" clip-rule="evenodd" d="M4.88498 4.87325C3.63346 4.87325 2.70997 5.47647 2.07229 6.21296C1.43862 6.9448 1.07627 7.81867 0.932758 8.40709C0.914947 8.48012 0.931658 8.55727 0.978086 8.61639C1.02451 8.6755 1.09552 8.71002 1.17068 8.71002H8.68088C8.76085 8.71002 8.83579 8.67097 8.88161 8.60542C8.92742 8.53987 8.93835 8.45608 8.91087 8.38098C8.70267 7.81189 8.32289 6.94274 7.68701 6.21244C7.04708 5.47749 6.13758 4.87325 4.88498 4.87325Z" fill="#787878"/>
</svg>
